# xmcd
#
# Track frame offsets:
#	150
#	12371
#	25019
#	35864
#	50121
#	62839
#	77609
#	90018
#	102373
#	112657
#	127047
#	140831
#	151166
#	164152
#	175855
#	187488
#	205007
#	215571
#	225460
#	238840
#	247199
#	258965
#	269405
#
# Disc length: 3756 seconds
#
# Revision: 0
# Processed by: cddbd v1.5.2PL0 Copyright (c) Steve Scherf et al.
# Submitted via: audiograbber 1.83.01
#
DISCID=4c0eaa17
DTITLE=Slim Clark - Sings The Legendary Jimmie Rodgers
DYEAR=1900
DGENRE=Country
TTITLE0=Moonlight and Skies
TTITLE1=Mother, Queen Of My Heart
TTITLE2=In The Jailhouse Now
TTITLE3=Away Out On the Mountain
TTITLE4=Never No Mo Blues
TTITLE5=Yodelling Cowboy
TTITLE6=Daddy and Home
TTITLE7=Waiting For A Train
TTITLE8=Desert Blues
TTITLE9=T For Texas
TTITLE10=My Little Lady
TTITLE11=Peach Pickin' Time In GA
TTITLE12=When The Bees Are In the Hive
TTITLE13=The Blue Canadian Rockies
TTITLE14=The Wreck Of No. 9
TTITLE15=The Bad Brahma Bull
TTITLE16=Call Of The Mountain 
TTITLE17=Sweet Little Bluebird
TTITLE18=Love Call Yodel
TTITLE19=The Red River Shore
TTITLE20=Chime Bell
TTITLE21=When I Say Hello To The Rockies
TTITLE22=I'm Thinking Tonight Of My Blue Eyes
EXTD=
EXTT0=
EXTT1=
EXTT2=
EXTT3=
EXTT4=
EXTT5=
EXTT6=
EXTT7=
EXTT8=
EXTT9=
EXTT10=
EXTT11=
EXTT12=
EXTT13=
EXTT14=
EXTT15=
EXTT16=
EXTT17=
EXTT18=
EXTT19=
EXTT20=
EXTT21=
EXTT22=
PLAYORDER=
